<?xml version="1.0" encoding="UTF-8" standalone="no" ?>
<!DOCTYPE svg PUBLIC "-//W3C//DTD SVG 1.1//EN" "http://www.w3.org/Graphics/SVG/1.1/DTD/svg11.dtd">
<svg xmlns="http://www.w3.org/2000/svg" xmlns:xlink="http://www.w3.org/1999/xlink" version="1.1" width="95.89999999999999" height="157.72" xml:space="preserve">
<desc>Created with Fabric.js 1.6.0-rc.1</desc>
<defs></defs>
<g style="stroke: none; stroke-width: 1; stroke-dasharray: none; stroke-linecap: butt; stroke-linejoin: miter; stroke-miterlimit: 10; fill: none; fill-rule: nonzero; opacity: 1;" transform="translate(18.36000000000001 9.999999999999996) scale(0.12 0.12)" >
  <path d="M 511.435 416.141 c -3.86 -23.803 -26.595 -40.465 -50.691 -37.14 c -9.755 1.35 -19.521 2.591 -29.294 3.747 l 9.064 -321.766 c 0.241 -8.547 -3.188 -16.812 -9.408 -22.675 c -6.217 -5.862 -14.669 -8.798 -23.179 -8.056 C 378.878 32.783 305.926 38.674 256 38.674 s -122.878 -5.891 -151.925 -8.424 c -8.518 -0.741 -16.963 2.193 -23.18 8.056 c -6.22 5.864 -9.649 14.129 -9.408 22.675 l 9.064 321.766 c -9.776 -1.156 -19.544 -2.398 -29.3 -3.748 c -24.081 -3.321 -46.826 13.339 -50.685 37.141 c -1.881 11.599 0.972 23.249 8.034 32.805 c 7.306 9.888 18.137 16.273 30.491 17.98 c 71.965 9.958 144.437 14.937 216.909 14.937 s 144.946 -4.979 216.912 -14.937 c 12.359 -1.708 23.187 -8.093 30.492 -17.98 C 510.463 439.39 513.316 427.741 511.435 416.141 z" style="stroke: none; stroke-width: 1; stroke-dasharray: none; stroke-linecap: butt; stroke-linejoin: miter; stroke-miterlimit: 10; fill: #418276; fill-rule: nonzero; opacity: 1;" transform=" matrix(1 0 0 1 0 0) " stroke-linecap="round" />
  <path d="M 511.435 416.141 c -3.86 -23.803 -26.595 -40.465 -50.691 -37.14 c -9.755 1.35 -19.521 2.591 -29.294 3.747 l 9.064 -321.766 c 0.241 -8.547 -3.188 -16.812 -9.408 -22.675 c -6.217 -5.862 -14.669 -8.798 -23.179 -8.056 C 378.878 32.783 305.926 38.674 256 38.674 v 443.188 c 72.472 0 144.945 -4.979 216.91 -14.937 c 12.359 -1.708 23.187 -8.093 30.492 -17.98 C 510.463 439.39 513.316 427.741 511.435 416.141 z" style="stroke: none; stroke-width: 1; stroke-dasharray: none; stroke-linecap: butt; stroke-linejoin: miter; stroke-miterlimit: 10; fill: #606060; fill-rule: nonzero; opacity: 1;" transform=" matrix(1 0 0 1 0 0) " stroke-linecap="round" />
  <path d="M 433.396 313.668 H 78.604 l -3.662 -129.997 h 362.116 L 433.396 313.668 z" style="stroke: none; stroke-width: 1; stroke-dasharray: none; stroke-linecap: butt; stroke-linejoin: miter; stroke-miterlimit: 10; fill: #AFAEB4; fill-rule: nonzero; opacity: 1;" transform=" matrix(1 0 0 1 0 0) " stroke-linecap="round" />
  <polygon points="256,183.67 256,313.67 433.4,313.67 437.06,183.67 " style="stroke: none; stroke-width: 1; stroke-dasharray: none; stroke-linecap: butt; stroke-linejoin: miter; stroke-miterlimit: 10; fill: #418276; fill-rule: nonzero; opacity: 1;" transform="  matrix(1 0 0 1 0 0) "/>
</g>
<g style="stroke: none; stroke-width: 1; stroke-dasharray: none; stroke-linecap: butt; stroke-linejoin: miter; stroke-miterlimit: 10; fill: none; fill-rule: nonzero; opacity: 1;" transform="translate(10 61.69999999999998) scale(0.15 0.17)" >
  <circle cx="252.5" cy="252.5" r="252.5" style="stroke: none; stroke-width: 1; stroke-dasharray: none; stroke-linecap: butt; stroke-linejoin: miter; stroke-miterlimit: 10; fill: #FFD05B; fill-rule: nonzero; opacity: 0;" transform="  matrix(1 0 0 1 0 0) "/>
  <polygon points="225.5,236.1 199.9,191.8 225.5,147.4 276.7,147.4 302.3,191.8 276.7,236.1 " style="stroke: none; stroke-width: 1; stroke-dasharray: none; stroke-linecap: butt; stroke-linejoin: miter; stroke-miterlimit: 10; fill: #2C9984; fill-rule: nonzero; opacity: 1;" transform="  matrix(1 0 0 1 0 0) "/>
  <rect x="171.1" y="67.6" rx="0" ry="0" width="162.2" height="69.7" style="stroke: none; stroke-width: 1; stroke-dasharray: none; stroke-linecap: butt; stroke-linejoin: miter; stroke-miterlimit: 10; fill: #CED5E0; fill-rule: nonzero; opacity: 1;" transform=" matrix(1 0 0 1 0 0) "/>
  <polygon points="333.9,67.6 253,147.4 304.8,225.2 361.7,120.3 " style="stroke: none; stroke-width: 1; stroke-dasharray: none; stroke-linecap: butt; stroke-linejoin: miter; stroke-miterlimit: 10; fill: #FFFFFF; fill-rule: nonzero; opacity: 1;" transform="  matrix(1 0 0 1 0 0) "/>
  <polygon points="171.1,67.6 253,147.4 200.2,225.2 143.3,120.3 " style="stroke: none; stroke-width: 1; stroke-dasharray: none; stroke-linecap: butt; stroke-linejoin: miter; stroke-miterlimit: 10; fill: #FFFFFF; fill-rule: nonzero; opacity: 1;" transform="  matrix(1 0 0 1 0 0) "/>
  <polygon points="296.4,404.5 250.3,453.1 205.2,404.5 225.5,236.1 276.1,236.1 " style="stroke: none; stroke-width: 1; stroke-dasharray: none; stroke-linecap: butt; stroke-linejoin: miter; stroke-miterlimit: 10; fill: #4CDBC4; fill-rule: nonzero; opacity: 1;" transform="  matrix(1 0 0 1 0 0) "/>
</g>
</svg>